<?xml version="1.0" encoding="UTF-8"?>
<!-- Created with Inkscape (http://www.inkscape.org/) -->
<svg width="95.985mm" height="72.271mm" version="1.1" viewBox="0 0 95.985 72.271" xmlns="http://www.w3.org/2000/svg">
 <g transform="translate(-44.264 -43.47)">
  <path transform="scale(.26458)" d="m167.3 164.3 0.0586 273.15 249.23-2e-3 113.49-137.7-118.33-135.42zm61.512 8.9707h83.574c25.276 0 37.914 11.958 37.914 35.875v84.797c0 23.917-12.638 35.877-37.914 35.877h-46.883v98.658h-36.691zm36.691 29.76v97.436h35.875c4.8922 0 8.1544-0.8146 9.7852-2.4453 1.6307-1.6307 2.4453-4.893 2.4453-9.7852v-73.383c0-4.8922-0.8146-8.0161-2.4453-9.375-1.6307-1.6307-4.893-2.4473-9.7852-2.4473z" fill="#fff" stroke-linejoin="round" stroke-width="2.0807"/>
 </g>
</svg>
