<?xml version="1.0" encoding="UTF-8"?>
<!-- Created with Inkscape (http://www.inkscape.org/) -->
<svg width="95.985mm" height="72.271mm" version="1.1" viewBox="0 0 95.985 72.271" xmlns="http://www.w3.org/2000/svg">
 <g transform="translate(-65.375 -67.068)">
  <path transform="matrix(.26458 0 0 .26458 15.129 67.366)" d="m552.69-1.127-244.45 0.027344-118.33 135.42 113.49 137.7 249.23 2e-3zm-183 8.9844h83.574c25.276 0 37.914 11.96 37.914 35.877v84.797c0 23.917-12.638 35.875-37.914 35.875h-46.883v98.658h-36.691zm36.691 29.762v97.434h35.875c4.8922 0 8.1544-0.81459 9.7852-2.4453 1.6307-1.6307 2.4453-4.8911 2.4453-9.7832v-73.383c0-4.8921-0.8146-8.018-2.4453-9.377-1.6307-1.6307-4.893-2.4453-9.7852-2.4453z" fill="#fff" stroke-linejoin="round" stroke-width="2.0807"/>
 </g>
</svg>
